<svg width="27" height="17" viewBox="0 0 27 17" fill="none" xmlns="http://www.w3.org/2000/svg">
<path d="M22.811 16.8584C22.6019 16.8584 22.3947 16.79 22.2217 16.655L15.6083 11.4274C15.3801 11.2449 15.2471 10.9712 15.2471 10.6803V1.17557C15.2471 0.652812 15.6729 0.225098 16.1975 0.225098H25.7023C26.227 0.225098 26.6528 0.652812 26.6528 1.17557V10.6803C26.6528 11.2031 26.227 11.6308 25.7023 11.6308H22.2977L23.7082 15.5886C23.8508 15.9878 23.7101 16.4326 23.366 16.6797C23.2026 16.7995 23.0087 16.8584 22.811 16.8584Z" fill="#2575E6"/>
<path d="M7.56389 16.8584C7.35479 16.8584 7.14758 16.79 6.97459 16.655L0.361181 11.4274C0.133067 11.2449 0 10.9712 0 10.6803V1.17557C0 0.652812 0.425813 0.225098 0.950476 0.225098H10.4552C10.9799 0.225098 11.4057 0.652812 11.4057 1.17557V10.6803C11.4057 11.2031 10.9799 11.6308 10.4552 11.6308H7.05063L8.46114 15.5886C8.60371 15.9878 8.46304 16.4326 8.11897 16.6797C7.95549 16.7995 7.76159 16.8584 7.56389 16.8584Z" fill="#2575E6"/>
</svg>
