<svg width="110" height="103" viewBox="0 0 110 103" fill="none" xmlns="http://www.w3.org/2000/svg">
<path d="M107.722 102.676C108.98 102.676 110 101.656 110 100.398C110 99.14 108.98 98.1201 107.722 98.1201C106.464 98.1201 105.444 99.14 105.444 100.398C105.444 101.656 106.464 102.676 107.722 102.676Z" fill="#64CCE3"/>
<path d="M107.722 82.9833C108.98 82.9833 110 81.9634 110 80.7053C110 79.4472 108.98 78.4272 107.722 78.4272C106.464 78.4272 105.444 79.4472 105.444 80.7053C105.444 81.9634 106.464 82.9833 107.722 82.9833Z" fill="#64CCE3"/>
<path d="M107.722 63.2963C108.98 63.2963 110 62.2764 110 61.0183C110 59.7601 108.98 58.7402 107.722 58.7402C106.464 58.7402 105.444 59.7601 105.444 61.0183C105.444 62.2764 106.464 63.2963 107.722 63.2963Z" fill="#64CCE3"/>
<path d="M107.722 43.7699C108.98 43.7699 110 42.75 110 41.4919C110 40.2338 108.98 39.2139 107.722 39.2139C106.464 39.2139 105.444 40.2338 105.444 41.4919C105.444 42.75 106.464 43.7699 107.722 43.7699Z" fill="#64CCE3"/>
<path d="M107.722 24.0824C108.98 24.0824 110 23.0625 110 21.8044C110 20.5463 108.98 19.5264 107.722 19.5264C106.464 19.5264 105.444 20.5463 105.444 21.8044C105.444 23.0625 106.464 24.0824 107.722 24.0824Z" fill="#64CCE3"/>
<path d="M107.723 4.55607C108.981 4.55607 110.001 3.53616 110.001 2.27804C110.001 1.01991 108.981 0 107.723 0C106.464 0 105.445 1.01991 105.445 2.27804C105.445 3.53616 106.464 4.55607 107.723 4.55607Z" fill="#64CCE3"/>
<path d="M86.7297 102.676C87.9878 102.676 89.0077 101.656 89.0077 100.398C89.0077 99.14 87.9878 98.1201 86.7297 98.1201C85.4716 98.1201 84.4517 99.14 84.4517 100.398C84.4517 101.656 85.4716 102.676 86.7297 102.676Z" fill="#64CCE3"/>
<path d="M86.7297 82.9833C87.9878 82.9833 89.0077 81.9634 89.0077 80.7053C89.0077 79.4472 87.9878 78.4272 86.7297 78.4272C85.4716 78.4272 84.4517 79.4472 84.4517 80.7053C84.4517 81.9634 85.4716 82.9833 86.7297 82.9833Z" fill="#64CCE3"/>
<path d="M86.7297 63.2963C87.9878 63.2963 89.0077 62.2764 89.0077 61.0183C89.0077 59.7601 87.9878 58.7402 86.7297 58.7402C85.4716 58.7402 84.4517 59.7601 84.4517 61.0183C84.4517 62.2764 85.4716 63.2963 86.7297 63.2963Z" fill="#64CCE3"/>
<path d="M86.7297 43.7699C87.9878 43.7699 89.0077 42.75 89.0077 41.4919C89.0077 40.2338 87.9878 39.2139 86.7297 39.2139C85.4716 39.2139 84.4517 40.2338 84.4517 41.4919C84.4517 42.75 85.4716 43.7699 86.7297 43.7699Z" fill="#64CCE3"/>
<path d="M86.7297 24.0815C87.9878 24.0815 89.0077 23.0616 89.0077 21.8034C89.0077 20.5453 87.9878 19.5254 86.7297 19.5254C85.4716 19.5254 84.4517 20.5453 84.4517 21.8034C84.4517 23.0616 85.4716 24.0815 86.7297 24.0815Z" fill="#64CCE3"/>
<path d="M86.7307 4.55607C87.9888 4.55607 89.0087 3.53616 89.0087 2.27804C89.0087 1.01991 87.9888 0 86.7307 0C85.4725 0 84.4526 1.01991 84.4526 2.27804C84.4526 3.53616 85.4725 4.55607 86.7307 4.55607Z" fill="#64CCE3"/>
<path d="M65.5764 102.676C66.8345 102.676 67.8544 101.656 67.8544 100.398C67.8544 99.14 66.8345 98.1201 65.5764 98.1201C64.3182 98.1201 63.2983 99.14 63.2983 100.398C63.2983 101.656 64.3182 102.676 65.5764 102.676Z" fill="#64CCE3"/>
<path d="M65.5764 82.9833C66.8345 82.9833 67.8544 81.9634 67.8544 80.7053C67.8544 79.4472 66.8345 78.4272 65.5764 78.4272C64.3182 78.4272 63.2983 79.4472 63.2983 80.7053C63.2983 81.9634 64.3182 82.9833 65.5764 82.9833Z" fill="#64CCE3"/>
<path d="M65.5764 63.2963C66.8345 63.2963 67.8544 62.2764 67.8544 61.0183C67.8544 59.7601 66.8345 58.7402 65.5764 58.7402C64.3182 58.7402 63.2983 59.7601 63.2983 61.0183C63.2983 62.2764 64.3182 63.2963 65.5764 63.2963Z" fill="#64CCE3"/>
<path d="M65.5764 43.7699C66.8345 43.7699 67.8544 42.75 67.8544 41.4919C67.8544 40.2338 66.8345 39.2139 65.5764 39.2139C64.3182 39.2139 63.2983 40.2338 63.2983 41.4919C63.2983 42.75 64.3182 43.7699 65.5764 43.7699Z" fill="#64CCE3"/>
<path d="M65.5764 24.0815C66.8345 24.0815 67.8544 23.0616 67.8544 21.8034C67.8544 20.5453 66.8345 19.5254 65.5764 19.5254C64.3182 19.5254 63.2983 20.5453 63.2983 21.8034C63.2983 23.0616 64.3182 24.0815 65.5764 24.0815Z" fill="#64CCE3"/>
<path d="M65.5774 4.55607C66.8355 4.55607 67.8554 3.53616 67.8554 2.27804C67.8554 1.01991 66.8355 0 65.5774 0C64.3192 0 63.2993 1.01991 63.2993 2.27804C63.2993 3.53616 64.3192 4.55607 65.5774 4.55607Z" fill="#64CCE3"/>
<path d="M44.4231 102.676C45.6812 102.676 46.7011 101.656 46.7011 100.398C46.7011 99.14 45.6812 98.1201 44.4231 98.1201C43.1649 98.1201 42.145 99.14 42.145 100.398C42.145 101.656 43.1649 102.676 44.4231 102.676Z" fill="#64CCE3"/>
<path d="M44.4231 82.9833C45.6812 82.9833 46.7011 81.9634 46.7011 80.7053C46.7011 79.4472 45.6812 78.4272 44.4231 78.4272C43.1649 78.4272 42.145 79.4472 42.145 80.7053C42.145 81.9634 43.1649 82.9833 44.4231 82.9833Z" fill="#64CCE3"/>
<path d="M44.4231 63.2963C45.6812 63.2963 46.7011 62.2764 46.7011 61.0183C46.7011 59.7601 45.6812 58.7402 44.4231 58.7402C43.1649 58.7402 42.145 59.7601 42.145 61.0183C42.145 62.2764 43.1649 63.2963 44.4231 63.2963Z" fill="#64CCE3"/>
<path d="M44.4231 43.7699C45.6812 43.7699 46.7011 42.75 46.7011 41.4919C46.7011 40.2338 45.6812 39.2139 44.4231 39.2139C43.1649 39.2139 42.145 40.2338 42.145 41.4919C42.145 42.75 43.1649 43.7699 44.4231 43.7699Z" fill="#64CCE3"/>
<path d="M44.4231 24.0815C45.6812 24.0815 46.7011 23.0616 46.7011 21.8034C46.7011 20.5453 45.6812 19.5254 44.4231 19.5254C43.1649 19.5254 42.145 20.5453 42.145 21.8034C42.145 23.0616 43.1649 24.0815 44.4231 24.0815Z" fill="#64CCE3"/>
<path d="M44.424 4.55607C45.6822 4.55607 46.7021 3.53616 46.7021 2.27804C46.7021 1.01991 45.6822 0 44.424 0C43.1659 0 42.146 1.01991 42.146 2.27804C42.146 3.53616 43.1659 4.55607 44.424 4.55607Z" fill="#64CCE3"/>
<path d="M23.2697 102.676C24.5279 102.676 25.5478 101.656 25.5478 100.398C25.5478 99.14 24.5279 98.1201 23.2697 98.1201C22.0116 98.1201 20.9917 99.14 20.9917 100.398C20.9917 101.656 22.0116 102.676 23.2697 102.676Z" fill="#64CCE3"/>
<path d="M23.2697 82.9833C24.5279 82.9833 25.5478 81.9634 25.5478 80.7053C25.5478 79.4472 24.5279 78.4272 23.2697 78.4272C22.0116 78.4272 20.9917 79.4472 20.9917 80.7053C20.9917 81.9634 22.0116 82.9833 23.2697 82.9833Z" fill="#64CCE3"/>
<path d="M23.2697 63.2963C24.5279 63.2963 25.5478 62.2764 25.5478 61.0183C25.5478 59.7601 24.5279 58.7402 23.2697 58.7402C22.0116 58.7402 20.9917 59.7601 20.9917 61.0183C20.9917 62.2764 22.0116 63.2963 23.2697 63.2963Z" fill="#64CCE3"/>
<path d="M23.2697 43.7699C24.5279 43.7699 25.5478 42.75 25.5478 41.4919C25.5478 40.2338 24.5279 39.2139 23.2697 39.2139C22.0116 39.2139 20.9917 40.2338 20.9917 41.4919C20.9917 42.75 22.0116 43.7699 23.2697 43.7699Z" fill="#64CCE3"/>
<path d="M23.2697 24.0815C24.5279 24.0815 25.5478 23.0616 25.5478 21.8034C25.5478 20.5453 24.5279 19.5254 23.2697 19.5254C22.0116 19.5254 20.9917 20.5453 20.9917 21.8034C20.9917 23.0616 22.0116 24.0815 23.2697 24.0815Z" fill="#64CCE3"/>
<path d="M23.2724 4.55607C24.5305 4.55607 25.5505 3.53616 25.5505 2.27804C25.5505 1.01991 24.5305 0 23.2724 0C22.0143 0 20.9944 1.01991 20.9944 2.27804C20.9944 3.53616 22.0143 4.55607 23.2724 4.55607Z" fill="#64CCE3"/>
<path d="M2.27804 102.676C3.53616 102.676 4.55607 101.656 4.55607 100.398C4.55607 99.14 3.53616 98.1201 2.27804 98.1201C1.01991 98.1201 0 99.14 0 100.398C0 101.656 1.01991 102.676 2.27804 102.676Z" fill="#64CCE3"/>
<path d="M2.27804 82.9833C3.53616 82.9833 4.55607 81.9634 4.55607 80.7053C4.55607 79.4472 3.53616 78.4272 2.27804 78.4272C1.01991 78.4272 0 79.4472 0 80.7053C0 81.9634 1.01991 82.9833 2.27804 82.9833Z" fill="#64CCE3"/>
<path d="M2.27804 63.2963C3.53616 63.2963 4.55607 62.2764 4.55607 61.0183C4.55607 59.7601 3.53616 58.7402 2.27804 58.7402C1.01991 58.7402 0 59.7601 0 61.0183C0 62.2764 1.01991 63.2963 2.27804 63.2963Z" fill="#64CCE3"/>
<path d="M2.27804 43.7699C3.53616 43.7699 4.55607 42.75 4.55607 41.4919C4.55607 40.2338 3.53616 39.2139 2.27804 39.2139C1.01991 39.2139 0 40.2338 0 41.4919C0 42.75 1.01991 43.7699 2.27804 43.7699Z" fill="#64CCE3"/>
<path d="M2.27804 24.0815C3.53616 24.0815 4.55607 23.0616 4.55607 21.8034C4.55607 20.5453 3.53616 19.5254 2.27804 19.5254C1.01991 19.5254 0 20.5453 0 21.8034C0 23.0616 1.01991 24.0815 2.27804 24.0815Z" fill="#64CCE3"/>
<path d="M2.27804 4.55607C3.53616 4.55607 4.55607 3.53616 4.55607 2.27804C4.55607 1.01991 3.53616 0 2.27804 0C1.01991 0 0 1.01991 0 2.27804C0 3.53616 1.01991 4.55607 2.27804 4.55607Z" fill="#64CCE3"/>
</svg>
