<svg width="140" height="20" viewBox="0 0 140 20" fill="none" xmlns="http://www.w3.org/2000/svg">
<mask id="path-1-inside-1" fill="white">
<path d="M8.86138 1.19098C9.16074 0.269671 10.4641 0.269673 10.7635 1.19098L12.3944 6.21024C12.5282 6.62226 12.9122 6.90122 13.3454 6.90122H18.623C19.5917 6.90122 19.9945 8.14084 19.2107 8.71024L14.9411 11.8123C14.5906 12.067 14.444 12.5183 14.5778 12.9303L16.2087 17.9496C16.5081 18.8709 15.4536 19.637 14.6699 19.0676L10.4002 15.9656C10.0497 15.7109 9.57514 15.7109 9.22466 15.9656L4.95502 19.0676C4.17131 19.637 3.11683 18.8709 3.41618 17.9496L5.04704 12.9303C5.18091 12.5183 5.03425 12.067 4.68376 11.8123L0.414131 8.71024C-0.369583 8.14084 0.0331946 6.90122 1.00192 6.90122H6.27947C6.7127 6.90122 7.09666 6.62226 7.23053 6.21024L8.86138 1.19098Z"/>
<path d="M38.8614 1.19098C39.1607 0.269671 40.4641 0.269673 40.7635 1.19098L42.3944 6.21024C42.5282 6.62226 42.9122 6.90122 43.3454 6.90122H48.623C49.5917 6.90122 49.9945 8.14084 49.2108 8.71024L44.9411 11.8123C44.5906 12.067 44.444 12.5183 44.5778 12.9303L46.2087 17.9496C46.5081 18.8709 45.4536 19.637 44.6699 19.0676L40.4002 15.9656C40.0497 15.7109 39.5751 15.7109 39.2247 15.9656L34.955 19.0676C34.1713 19.637 33.1168 18.8709 33.4162 17.9496L35.047 12.9303C35.1809 12.5183 35.0343 12.067 34.6838 11.8123L30.4141 8.71024C29.6304 8.14084 30.0332 6.90122 31.0019 6.90122H36.2795C36.7127 6.90122 37.0967 6.62226 37.2305 6.21024L38.8614 1.19098Z"/>
<path d="M68.8614 1.19098C69.1607 0.269671 70.4641 0.269673 70.7635 1.19098L72.3944 6.21024C72.5282 6.62226 72.9122 6.90122 73.3454 6.90122H78.623C79.5917 6.90122 79.9945 8.14084 79.2107 8.71024L74.9411 11.8123C74.5906 12.067 74.444 12.5183 74.5778 12.9303L76.2087 17.9496C76.5081 18.8709 75.4536 19.637 74.6699 19.0676L70.4002 15.9656C70.0497 15.7109 69.5751 15.7109 69.2247 15.9656L64.955 19.0676C64.1713 19.637 63.1168 18.8709 63.4162 17.9496L65.047 12.9303C65.1809 12.5183 65.0342 12.067 64.6838 11.8123L60.4141 8.71024C59.6304 8.14084 60.0332 6.90122 61.0019 6.90122H66.2795C66.7127 6.90122 67.0967 6.62226 67.2305 6.21024L68.8614 1.19098Z"/>
<path d="M98.8614 1.19098C99.1607 0.269671 100.464 0.269673 100.763 1.19098L102.394 6.21024C102.528 6.62226 102.912 6.90122 103.345 6.90122H108.623C109.592 6.90122 109.994 8.14084 109.211 8.71024L104.941 11.8123C104.591 12.067 104.444 12.5183 104.578 12.9303L106.209 17.9496C106.508 18.8709 105.454 19.637 104.67 19.0676L100.4 15.9656C100.05 15.7109 99.5751 15.7109 99.2247 15.9656L94.955 19.0676C94.1713 19.637 93.1168 18.8709 93.4162 17.9496L95.047 12.9303C95.1809 12.5183 95.0342 12.067 94.6838 11.8123L90.4141 8.71024C89.6304 8.14084 90.0332 6.90122 91.0019 6.90122H96.2795C96.7127 6.90122 97.0967 6.62226 97.2305 6.21024L98.8614 1.19098Z"/>
<path d="M128.861 1.19098C129.161 0.269671 130.464 0.269673 130.764 1.19098L132.394 6.21024C132.528 6.62226 132.912 6.90122 133.345 6.90122H138.623C139.592 6.90122 139.994 8.14084 139.211 8.71024L134.941 11.8123C134.591 12.067 134.444 12.5183 134.578 12.9303L136.209 17.9496C136.508 18.8709 135.454 19.637 134.67 19.0676L130.4 15.9656C130.05 15.7109 129.575 15.7109 129.225 15.9656L124.955 19.0676C124.171 19.637 123.117 18.8709 123.416 17.9496L125.047 12.9303C125.181 12.5183 125.034 12.067 124.684 11.8123L120.414 8.71024C119.63 8.14084 120.033 6.90122 121.002 6.90122H126.279C126.713 6.90122 127.097 6.62226 127.231 6.21024L128.861 1.19098Z"/>
</mask>
<path d="M8.86138 1.19098C9.16074 0.269671 10.4641 0.269673 10.7635 1.19098L12.3944 6.21024C12.5282 6.62226 12.9122 6.90122 13.3454 6.90122H18.623C19.5917 6.90122 19.9945 8.14084 19.2107 8.71024L14.9411 11.8123C14.5906 12.067 14.444 12.5183 14.5778 12.9303L16.2087 17.9496C16.5081 18.8709 15.4536 19.637 14.6699 19.0676L10.4002 15.9656C10.0497 15.7109 9.57514 15.7109 9.22466 15.9656L4.95502 19.0676C4.17131 19.637 3.11683 18.8709 3.41618 17.9496L5.04704 12.9303C5.18091 12.5183 5.03425 12.067 4.68376 11.8123L0.414131 8.71024C-0.369583 8.14084 0.0331946 6.90122 1.00192 6.90122H6.27947C6.7127 6.90122 7.09666 6.62226 7.23053 6.21024L8.86138 1.19098Z" fill="url(#paint0_linear)"/>
<path d="M38.8614 1.19098C39.1607 0.269671 40.4641 0.269673 40.7635 1.19098L42.3944 6.21024C42.5282 6.62226 42.9122 6.90122 43.3454 6.90122H48.623C49.5917 6.90122 49.9945 8.14084 49.2108 8.71024L44.9411 11.8123C44.5906 12.067 44.444 12.5183 44.5778 12.9303L46.2087 17.9496C46.5081 18.8709 45.4536 19.637 44.6699 19.0676L40.4002 15.9656C40.0497 15.7109 39.5751 15.7109 39.2247 15.9656L34.955 19.0676C34.1713 19.637 33.1168 18.8709 33.4162 17.9496L35.047 12.9303C35.1809 12.5183 35.0343 12.067 34.6838 11.8123L30.4141 8.71024C29.6304 8.14084 30.0332 6.90122 31.0019 6.90122H36.2795C36.7127 6.90122 37.0967 6.62226 37.2305 6.21024L38.8614 1.19098Z" fill="url(#paint1_linear)"/>
<path d="M68.8614 1.19098C69.1607 0.269671 70.4641 0.269673 70.7635 1.19098L72.3944 6.21024C72.5282 6.62226 72.9122 6.90122 73.3454 6.90122H78.623C79.5917 6.90122 79.9945 8.14084 79.2107 8.71024L74.9411 11.8123C74.5906 12.067 74.444 12.5183 74.5778 12.9303L76.2087 17.9496C76.5081 18.8709 75.4536 19.637 74.6699 19.0676L70.4002 15.9656C70.0497 15.7109 69.5751 15.7109 69.2247 15.9656L64.955 19.0676C64.1713 19.637 63.1168 18.8709 63.4162 17.9496L65.047 12.9303C65.1809 12.5183 65.0342 12.067 64.6838 11.8123L60.4141 8.71024C59.6304 8.14084 60.0332 6.90122 61.0019 6.90122H66.2795C66.7127 6.90122 67.0967 6.62226 67.2305 6.21024L68.8614 1.19098Z" fill="url(#paint2_linear)"/>
<path d="M98.8614 1.19098C99.1607 0.269671 100.464 0.269673 100.763 1.19098L102.394 6.21024C102.528 6.62226 102.912 6.90122 103.345 6.90122H108.623C109.592 6.90122 109.994 8.14084 109.211 8.71024L104.941 11.8123C104.591 12.067 104.444 12.5183 104.578 12.9303L106.209 17.9496C106.508 18.8709 105.454 19.637 104.67 19.0676L100.4 15.9656C100.05 15.7109 99.5751 15.7109 99.2247 15.9656L94.955 19.0676C94.1713 19.637 93.1168 18.8709 93.4162 17.9496L95.047 12.9303C95.1809 12.5183 95.0342 12.067 94.6838 11.8123L90.4141 8.71024C89.6304 8.14084 90.0332 6.90122 91.0019 6.90122H96.2795C96.7127 6.90122 97.0967 6.62226 97.2305 6.21024L98.8614 1.19098Z" fill="url(#paint3_linear)"/>
<path d="M128.861 1.19098C129.161 0.269671 130.464 0.269673 130.764 1.19098L132.394 6.21024C132.528 6.62226 132.912 6.90122 133.345 6.90122H138.623C139.592 6.90122 139.994 8.14084 139.211 8.71024L134.941 11.8123C134.591 12.067 134.444 12.5183 134.578 12.9303L136.209 17.9496C136.508 18.8709 135.454 19.637 134.67 19.0676L130.4 15.9656C130.05 15.7109 129.575 15.7109 129.225 15.9656L124.955 19.0676C124.171 19.637 123.117 18.8709 123.416 17.9496L125.047 12.9303C125.181 12.5183 125.034 12.067 124.684 11.8123L120.414 8.71024C119.63 8.14084 120.033 6.90122 121.002 6.90122H126.279C126.713 6.90122 127.097 6.62226 127.231 6.21024L128.861 1.19098Z" fill="url(#paint4_linear)"/>
<path d="M8.86138 1.19098C9.16074 0.269671 10.4641 0.269673 10.7635 1.19098L12.3944 6.21024C12.5282 6.62226 12.9122 6.90122 13.3454 6.90122H18.623C19.5917 6.90122 19.9945 8.14084 19.2107 8.71024L14.9411 11.8123C14.5906 12.067 14.444 12.5183 14.5778 12.9303L16.2087 17.9496C16.5081 18.8709 15.4536 19.637 14.6699 19.0676L10.4002 15.9656C10.0497 15.7109 9.57514 15.7109 9.22466 15.9656L4.95502 19.0676C4.17131 19.637 3.11683 18.8709 3.41618 17.9496L5.04704 12.9303C5.18091 12.5183 5.03425 12.067 4.68376 11.8123L0.414131 8.71024C-0.369583 8.14084 0.0331946 6.90122 1.00192 6.90122H6.27947C6.7127 6.90122 7.09666 6.62226 7.23053 6.21024L8.86138 1.19098Z" stroke="#F3BA2B" stroke-width="2" mask="url(#path-1-inside-1)"/>
<path d="M38.8614 1.19098C39.1607 0.269671 40.4641 0.269673 40.7635 1.19098L42.3944 6.21024C42.5282 6.62226 42.9122 6.90122 43.3454 6.90122H48.623C49.5917 6.90122 49.9945 8.14084 49.2108 8.71024L44.9411 11.8123C44.5906 12.067 44.444 12.5183 44.5778 12.9303L46.2087 17.9496C46.5081 18.8709 45.4536 19.637 44.6699 19.0676L40.4002 15.9656C40.0497 15.7109 39.5751 15.7109 39.2247 15.9656L34.955 19.0676C34.1713 19.637 33.1168 18.8709 33.4162 17.9496L35.047 12.9303C35.1809 12.5183 35.0343 12.067 34.6838 11.8123L30.4141 8.71024C29.6304 8.14084 30.0332 6.90122 31.0019 6.90122H36.2795C36.7127 6.90122 37.0967 6.62226 37.2305 6.21024L38.8614 1.19098Z" stroke="#F3BA2B" stroke-width="2" mask="url(#path-1-inside-1)"/>
<path d="M68.8614 1.19098C69.1607 0.269671 70.4641 0.269673 70.7635 1.19098L72.3944 6.21024C72.5282 6.62226 72.9122 6.90122 73.3454 6.90122H78.623C79.5917 6.90122 79.9945 8.14084 79.2107 8.71024L74.9411 11.8123C74.5906 12.067 74.444 12.5183 74.5778 12.9303L76.2087 17.9496C76.5081 18.8709 75.4536 19.637 74.6699 19.0676L70.4002 15.9656C70.0497 15.7109 69.5751 15.7109 69.2247 15.9656L64.955 19.0676C64.1713 19.637 63.1168 18.8709 63.4162 17.9496L65.047 12.9303C65.1809 12.5183 65.0342 12.067 64.6838 11.8123L60.4141 8.71024C59.6304 8.14084 60.0332 6.90122 61.0019 6.90122H66.2795C66.7127 6.90122 67.0967 6.62226 67.2305 6.21024L68.8614 1.19098Z" stroke="#F3BA2B" stroke-width="2" mask="url(#path-1-inside-1)"/>
<path d="M98.8614 1.19098C99.1607 0.269671 100.464 0.269673 100.763 1.19098L102.394 6.21024C102.528 6.62226 102.912 6.90122 103.345 6.90122H108.623C109.592 6.90122 109.994 8.14084 109.211 8.71024L104.941 11.8123C104.591 12.067 104.444 12.5183 104.578 12.9303L106.209 17.9496C106.508 18.8709 105.454 19.637 104.67 19.0676L100.4 15.9656C100.05 15.7109 99.5751 15.7109 99.2247 15.9656L94.955 19.0676C94.1713 19.637 93.1168 18.8709 93.4162 17.9496L95.047 12.9303C95.1809 12.5183 95.0342 12.067 94.6838 11.8123L90.4141 8.71024C89.6304 8.14084 90.0332 6.90122 91.0019 6.90122H96.2795C96.7127 6.90122 97.0967 6.62226 97.2305 6.21024L98.8614 1.19098Z" stroke="#F3BA2B" stroke-width="2" mask="url(#path-1-inside-1)"/>
<path d="M128.861 1.19098C129.161 0.269671 130.464 0.269673 130.764 1.19098L132.394 6.21024C132.528 6.62226 132.912 6.90122 133.345 6.90122H138.623C139.592 6.90122 139.994 8.14084 139.211 8.71024L134.941 11.8123C134.591 12.067 134.444 12.5183 134.578 12.9303L136.209 17.9496C136.508 18.8709 135.454 19.637 134.67 19.0676L130.4 15.9656C130.05 15.7109 129.575 15.7109 129.225 15.9656L124.955 19.0676C124.171 19.637 123.117 18.8709 123.416 17.9496L125.047 12.9303C125.181 12.5183 125.034 12.067 124.684 11.8123L120.414 8.71024C119.63 8.14084 120.033 6.90122 121.002 6.90122H126.279C126.713 6.90122 127.097 6.62226 127.231 6.21024L128.861 1.19098Z" stroke="#F3BA2B" stroke-width="2" mask="url(#path-1-inside-1)"/>
<defs>
<linearGradient id="paint0_linear" x1="0.3125" y1="10.2639" x2="139.313" y2="10.2639" gradientUnits="userSpaceOnUse">
<stop stop-color="#F3BA2B"/>
<stop offset="0.931302" stop-color="#F3BA2B"/>
<stop offset="0.931458" stop-color="#F3BA2B" stop-opacity="0"/>
</linearGradient>
<linearGradient id="paint1_linear" x1="0.3125" y1="10.2639" x2="139.313" y2="10.2639" gradientUnits="userSpaceOnUse">
<stop stop-color="#F3BA2B"/>
<stop offset="0.931302" stop-color="#F3BA2B"/>
<stop offset="0.931458" stop-color="#F3BA2B" stop-opacity="0"/>
</linearGradient>
<linearGradient id="paint2_linear" x1="0.3125" y1="10.2639" x2="139.313" y2="10.2639" gradientUnits="userSpaceOnUse">
<stop stop-color="#F3BA2B"/>
<stop offset="0.931302" stop-color="#F3BA2B"/>
<stop offset="0.931458" stop-color="#F3BA2B" stop-opacity="0"/>
</linearGradient>
<linearGradient id="paint3_linear" x1="0.3125" y1="10.2639" x2="139.313" y2="10.2639" gradientUnits="userSpaceOnUse">
<stop stop-color="#F3BA2B"/>
<stop offset="0.931302" stop-color="#F3BA2B"/>
<stop offset="0.931458" stop-color="#F3BA2B" stop-opacity="0"/>
</linearGradient>
<linearGradient id="paint4_linear" x1="0.3125" y1="10.2639" x2="139.313" y2="10.2639" gradientUnits="userSpaceOnUse">
<stop stop-color="#F3BA2B"/>
<stop offset="0.931302" stop-color="#F3BA2B"/>
<stop offset="0.931458" stop-color="#F3BA2B" stop-opacity="0"/>
</linearGradient>
</defs>
</svg>
